<svg xmlns="http://www.w3.org/2000/svg" viewBox="0 0 821.1 151.6"><path fill="gray" d="M221.2 86.3h-2.1L230.6 67h2.1l-11.5 19.3zM239.2 78v-4.1l-3.1 2.2-1.1-1.9 3.6-1.8-3.6-1.8 1.1-1.9 3.1 2.2v-4.1h2.2v4.1l3.1-2.2 1.1 1.9-3.6 1.8 3.6 1.8-1.1 1.9-3.1-2.2V78h-2.2zM253.6 78v-4.1l-3.1 2.2-1.1-1.9 3.6-1.8-3.6-1.8 1.1-1.9 3.1 2.2v-4.1h2.2v4.1l3.1-2.2 1.1 1.9-3.6 1.8 3.6 1.8-1.1 1.9-3.1-2.2V78h-2.2z"/><path fill="#ED1E79" d="M287.1 83.4v1.8c-.7.4-1.2.7-1.7.8s-1.1.2-1.6.2c-1.6 0-3-.4-4-1.2s-1.9-1.9-2.5-3.3-.9-3.2-.9-5.2c0-2.8.7-5.2 2-6.9s3.1-2.7 5.3-2.7c2.2 0 3.9.8 5.2 2.3s1.9 3.6 1.9 6.2c0 1.1-.2 2-.5 2.8-.3.7-.8 1.3-1.3 1.7s-1.2.6-2 .6c-.6 0-1.1-.1-1.5-.4-.4-.3-.7-.9-.8-1.8-.2.5-.6 1-1 1.5-.5.5-1.1.7-1.8.7-.8 0-1.5-.4-2-1.1-.5-.7-.8-1.6-.8-2.7 0-1.3.4-2.5 1.1-3.6.8-1.1 2.1-1.7 4.1-1.7h2.2v5.1c0 .7 0 1.2.1 1.4 0 .3.2.5.3.6.2.1.3.2.5.2.3 0 .6-.1.9-.4s.5-.7.7-1.2c.2-.5.2-1.1.2-1.7 0-1.3-.2-2.6-.7-3.8s-1.2-2.1-2.1-2.6-1.9-.8-2.9-.8c-1.1 0-2 .3-2.9 1s-1.5 1.6-2 2.9-.8 2.7-.8 4.3c0 1.6.3 3.1.8 4.4s1.2 2.3 2.1 3 1.9.9 3 .9c1.2.2 2.3-.3 3.4-1.3zm-2.4-7.2V73h-.4c-.9 0-1.6.1-2 .4-.4.3-.7.7-1 1.4-.2.6-.4 1.3-.4 2 0 .6.1 1.1.3 1.4.2.3.4.5.8.5.5 0 .9-.3 1.4-.8.5-.4.9-1 1.3-1.7zM293.6 85.7V72.6h2.2v2.9c.7-1.1 1.5-1.9 2.3-2.4s1.9-.8 2.9-.8c.8 0 1.6.1 2.4.4v4.7h-2.1v-3c-.4-.1-.7-.1-.9-.1-.8 0-1.6.3-2.4 1s-1.5 1.6-2.3 2.9v7.6h-2.1zM317.8 84.8c-1.7.8-3.4 1.2-4.9 1.2-1.2 0-2.2-.3-3.2-.9-.9-.6-1.7-1.4-2.2-2.5s-.8-2.3-.8-3.5c0-1.2.3-2.3.8-3.4s1.3-2 2.2-2.6c1-.6 2-.9 3.2-.9 1.6 0 2.8.6 3.7 1.7.9 1.1 1.4 2.8 1.4 5.1v.5h-9c0 .9.2 1.7.6 2.5s.9 1.3 1.5 1.7 1.3.6 2.1.6c1.4 0 3-.5 4.7-1.4v1.9zm-8.7-6.9h6.5v-.3c0-1.1-.3-1.9-.8-2.5s-1.2-.9-2.1-.9c-.9 0-1.6.3-2.3 1s-1 1.4-1.3 2.7zM332.3 85.2c-1 .4-1.8.7-2.2.8s-.9.1-1.3.1c-.9 0-1.8-.2-2.5-.5s-1.3-.9-1.7-1.6-.6-1.8-.6-3.2v-5.3h-3.3v-1.8h3.3v-5.3h2.2v5.3h5.8v1.8h-5.8v5.2c0 1.1.1 1.8.4 2.2s.6.8 1 1 .9.3 1.5.3c1.1 0 2.2-.3 3.3-1v2zM346.5 72.6v13.1h-2.2v-2.9c-.7 1.1-1.5 1.9-2.3 2.4s-1.7.8-2.6.8c-.8 0-1.5-.2-2.1-.6s-1.1-.9-1.3-1.6-.4-2-.4-3.9v-7.3h2.2v7.6c0 1.3.1 2.1.2 2.5s.3.7.7 1 .7.4 1 .4c.8 0 1.6-.4 2.5-1.1s1.6-1.6 2.2-2.7v-7.6h2.1zM351.2 85.7V72.6h2.2v2.9c.7-1.1 1.5-1.9 2.3-2.4s1.9-.8 2.9-.8c.8 0 1.6.1 2.4.4v4.7h-2v-3c-.4-.1-.7-.1-.9-.1-.8 0-1.6.3-2.4 1s-1.5 1.6-2.3 2.9v7.6h-2.2zM364.5 85.7V72.6h2.2v2.9c.6-1 1.4-1.8 2.3-2.4s1.8-.9 2.6-.9 1.5.2 2.1.6 1.1.9 1.3 1.6.4 2 .4 3.9v7.3h-2.2V78c0-1.3-.1-2.1-.2-2.5s-.3-.7-.7-1-.7-.4-1.1-.4c-.8 0-1.6.4-2.5 1.1s-1.6 1.6-2.2 2.7v7.6h-2z"/><path fill="gray" d="M393.5 85.7V67.5h3.6c2.1 0 3.6.2 4.3.5s1.3.8 1.6 1.4.5 1.4.5 2.2c0 .6-.1 1.2-.3 1.8s-.5 1.1-.9 1.6-1 .9-1.8 1.3c1.4.6 2.4 1.3 2.9 2.1s.8 1.7.8 2.5-.2 1.6-.7 2.3-1 1.3-1.8 1.7-2 .6-3.8.6h-4.4zm2.4-10h2.5c.8-.3 1.4-.7 1.8-1.1.4-.4.6-.8.8-1.2s.3-1 .3-1.5c0-.9-.3-1.5-.8-1.9s-1.5-.6-2.9-.6h-1.7v6.3zm0 8.2h2.2c1.2 0 2.2-.3 2.8-.9s.9-1.3.9-2.1c0-.6-.2-1.2-.5-1.7s-.8-.9-1.5-1.2-1.8-.5-3.2-.5h-.7v6.4zM416.3 82.8c-.7 1.1-1.5 1.9-2.4 2.5-.9.6-1.8.8-2.6.8-1.1 0-2.1-.5-2.9-1.4-.9-.9-1.3-2.4-1.3-4.3 0-1.5.3-2.9.9-4.1.6-1.2 1.4-2.1 2.3-2.8s2.2-1 3.6-1c.4 0 1 0 1.9.1.1 0 .3 0 .6.1h2.2v9.2c0 1.6.2 2.9.5 3.8h-2.3c-.2-.7-.4-1.7-.5-2.9zm.1-2.6v-5.6c-.8-.2-1.5-.3-2.2-.3-1.3 0-2.5.5-3.4 1.6-.9 1-1.3 2.5-1.3 4.2 0 1.3.2 2.3.7 2.9s1 1 1.7 1 1.4-.3 2.3-1c.8-.7 1.5-1.7 2.2-2.8zM423.3 85.7V72.6h2.2v2.9c.7-1.1 1.5-1.9 2.3-2.4s1.9-.8 2.9-.8c.8 0 1.6.1 2.4.4v4.7H431v-3c-.4-.1-.7-.1-.9-.1-.8 0-1.6.3-2.4 1s-1.5 1.6-2.3 2.9v7.6h-2.1zM447.6 85.3c-1.5.5-2.9.7-4.2.7-1.3 0-2.5-.3-3.5-.9s-1.8-1.4-2.4-2.5-.9-2.2-.9-3.5c0-2 .6-3.6 1.9-4.9s2.9-2 4.7-2c1.4 0 2.8.3 4.3.8v2.1c-1.5-.7-2.9-1-4.1-1-.8 0-1.5.2-2.2.6s-1.2 1-1.6 1.8-.6 1.7-.6 2.6c0 1.2.4 2.3 1.1 3.4s1.9 1.6 3.5 1.6c.5 0 .9 0 1.4-.1s1.3-.3 2.6-.7v2zM461.8 84.8c-1.7.8-3.4 1.2-4.9 1.2-1.2 0-2.2-.3-3.2-.9-.9-.6-1.7-1.4-2.2-2.5s-.8-2.3-.8-3.5c0-1.2.3-2.3.8-3.4s1.3-2 2.2-2.6c1-.6 2-.9 3.2-.9 1.6 0 2.8.6 3.7 1.7.9 1.1 1.4 2.8 1.4 5.1v.5h-9c0 .9.2 1.7.6 2.5s.9 1.3 1.5 1.7 1.3.6 2.1.6c1.4 0 3-.5 4.7-1.4v1.9zm-8.7-6.9h6.5v-.3c0-1.1-.3-1.9-.8-2.5s-1.2-.9-2.1-.9c-.9 0-1.6.3-2.3 1s-1 1.4-1.3 2.7zM468.9 85.7V68.6H465v-1.8h6.1v17.1h4.1v1.8h-6.3zM485.1 86.1c-1.9 0-3.4-.7-4.5-2s-1.7-3-1.7-5 .6-3.6 1.7-4.9 2.6-2 4.5-2 3.4.7 4.5 2 1.7 3 1.7 4.9c0 2-.6 3.6-1.7 5-1.1 1.3-2.6 2-4.5 2zm0-1.8c1.2 0 2.1-.5 2.8-1.4.7-.9 1-2.2 1-3.7 0-1.6-.3-2.8-1-3.7-.7-.9-1.6-1.4-2.8-1.4-1.2 0-2.1.5-2.8 1.4s-1 2.1-1 3.7.3 2.8 1 3.7 1.7 1.4 2.8 1.4zM494.2 85.7V72.6h2.2v2.9c.6-1 1.4-1.8 2.3-2.4s1.8-.9 2.6-.9 1.5.2 2.1.6 1.1.9 1.3 1.6.4 2 .4 3.9v7.3h-2.2V78c0-1.3-.1-2.1-.2-2.5s-.3-.7-.7-1-.7-.4-1.1-.4c-.8 0-1.6.4-2.5 1.1s-1.6 1.6-2.2 2.7v7.6h-2zM517.2 82.8c-.7 1.1-1.5 1.9-2.4 2.5-.9.6-1.8.8-2.6.8-1.1 0-2.1-.5-2.9-1.4-.9-.9-1.3-2.4-1.3-4.3 0-1.5.3-2.9.9-4.1.6-1.2 1.4-2.1 2.3-2.8s2.2-1 3.6-1c.4 0 1 0 1.9.1.1 0 .3 0 .6.1h2.2v9.2c0 1.6.2 2.9.5 3.8h-2.3c-.3-.7-.4-1.7-.5-2.9zm0-2.6v-5.6c-.8-.2-1.5-.3-2.2-.3-1.3 0-2.5.5-3.4 1.6-.9 1-1.3 2.5-1.3 4.2 0 1.3.2 2.3.7 2.9s1 1 1.7 1 1.4-.3 2.3-1c.8-.7 1.5-1.7 2.2-2.8zM538.2 85.7V67.5h10v1.8h-7.6v6.2h6.9v1.8h-6.9v8.4h-2.4zM552.9 85.7V72.6h2.2v2.9c.7-1.1 1.5-1.9 2.3-2.4s1.9-.8 2.9-.8c.8 0 1.6.1 2.4.4v4.7h-2.1v-3c-.4-.1-.7-.1-.9-.1-.8 0-1.6.3-2.4 1s-1.5 1.6-2.3 2.9v7.6h-2.1zM577.1 84.8c-1.7.8-3.4 1.2-4.9 1.2-1.2 0-2.2-.3-3.2-.9-.9-.6-1.7-1.4-2.2-2.5s-.8-2.3-.8-3.5c0-1.2.3-2.3.8-3.4s1.3-2 2.2-2.6c1-.6 2-.9 3.2-.9 1.6 0 2.8.6 3.7 1.7.9 1.1 1.4 2.8 1.4 5.1v.5h-9c0 .9.2 1.7.6 2.5s.9 1.3 1.5 1.7 1.3.6 2.1.6c1.4 0 3-.5 4.7-1.4v1.9zm-8.8-6.9h6.5v-.3c0-1.1-.3-1.9-.8-2.5s-1.2-.9-2.1-.9c-.9 0-1.6.3-2.3 1s-1 1.4-1.3 2.7zM591.5 84.8c-1.7.8-3.4 1.2-4.9 1.2-1.2 0-2.2-.3-3.2-.9-.9-.6-1.7-1.4-2.2-2.5s-.8-2.3-.8-3.5c0-1.2.3-2.3.8-3.4s1.3-2 2.2-2.6c1-.6 2-.9 3.2-.9 1.6 0 2.8.6 3.7 1.7.9 1.1 1.4 2.8 1.4 5.1v.5h-9c0 .9.2 1.7.6 2.5s.9 1.3 1.5 1.7 1.3.6 2.1.6c1.4 0 3-.5 4.7-1.4v1.9zm-8.8-6.9h6.5v-.3c0-1.1-.3-1.9-.8-2.5s-1.2-.9-2.1-.9c-.9 0-1.6.3-2.3 1s-1 1.4-1.3 2.7zM609.4 85.3v-2.2c1.9.9 3.6 1.3 5.1 1.3.6 0 1.2-.1 1.8-.4.6-.2 1-.6 1.3-1.1s.5-1 .5-1.5c0-.6-.2-1.2-.6-1.8-.4-.6-1.2-1.2-2.3-1.8l-1.2-.7-1.2-.7c-2.1-1.3-3.2-2.8-3.2-4.7 0-1.4.5-2.5 1.4-3.5.9-.9 2.4-1.4 4.4-1.4 1.3 0 2.6.2 3.8.6v2c-1.3-.5-2.6-.8-3.9-.8-1 0-1.8.3-2.4.8-.6.5-.9 1.2-.9 1.9s.2 1.4.7 1.9c.5.5 1.1.9 1.8 1.4l.9.6 1.1.7.9.6c2 1.2 3 2.8 3 4.6 0 1.4-.5 2.6-1.5 3.6s-2.7 1.5-4.9 1.5c-.7 0-1.4-.1-2.1-.2s-1.4-.3-2.5-.7zM629.2 86.1c-1.9 0-3.4-.7-4.5-2s-1.7-3-1.7-5 .6-3.6 1.7-4.9 2.6-2 4.5-2 3.4.7 4.5 2 1.7 3 1.7 4.9c0 2-.6 3.6-1.7 5-1.2 1.3-2.7 2-4.5 2zm0-1.8c1.2 0 2.1-.5 2.8-1.4.7-.9 1-2.2 1-3.7 0-1.6-.3-2.8-1-3.7-.7-.9-1.6-1.4-2.8-1.4-1.2 0-2.1.5-2.8 1.4s-1 2.1-1 3.7.3 2.8 1 3.7 1.6 1.4 2.8 1.4zM641.2 85.7V75.5h-2.9v-1.8h2.9v-.6c0-1.7.2-3 .6-3.8.4-.8 1-1.5 1.8-2s1.9-.8 3.2-.8c1 0 2 .1 3.1.3v2.1c-1.1-.4-2.1-.6-3-.6-.7 0-1.3.1-1.8.4s-.9.7-1.2 1.3-.5 1.6-.5 3v.8h5.2v1.8h-5.2v10.2h-2.2zM663.5 85.2c-1 .4-1.8.7-2.2.8s-.9.1-1.3.1c-.9 0-1.8-.2-2.5-.5s-1.3-.9-1.7-1.6-.6-1.8-.6-3.2v-5.3h-3.3v-1.8h3.3v-5.3h2.2v5.3h5.8v1.8h-5.8v5.2c0 1.1.1 1.8.4 2.2s.6.8 1 1 .9.3 1.5.3c1.1 0 2.2-.3 3.3-1v2zM667.5 85.7l-2.1-13.1h2l1.2 8 .3 1.9.3-1.9 2.1-8h2l2.4 8 .4 1.9.3-1.9 1.3-8h1.7l-2.1 13.1h-2l-2.5-8.4-.4-1.9h-.1l-.4 1.8-2.2 8.4h-2.2zM690 82.8c-.7 1.1-1.5 1.9-2.4 2.5-.9.6-1.8.8-2.6.8-1.1 0-2.1-.5-2.9-1.4-.9-.9-1.3-2.4-1.3-4.3 0-1.5.3-2.9.9-4.1.6-1.2 1.4-2.1 2.3-2.8s2.2-1 3.6-1c.4 0 1 0 1.9.1.1 0 .3 0 .6.1h2.2v9.2c0 1.6.2 2.9.5 3.8h-2.3c-.3-.7-.4-1.7-.5-2.9zm0-2.6v-5.6c-.8-.2-1.5-.3-2.2-.3-1.3 0-2.5.5-3.4 1.6-.9 1-1.3 2.5-1.3 4.2 0 1.3.2 2.3.7 2.9s1 1 1.7 1 1.4-.3 2.3-1c.8-.7 1.5-1.7 2.2-2.8zM696.9 85.7V72.6h2.2v2.9c.7-1.1 1.5-1.9 2.3-2.4s1.9-.8 2.9-.8c.8 0 1.6.1 2.4.4v4.7h-2.1v-3c-.4-.1-.7-.1-.9-.1-.8 0-1.6.3-2.4 1s-1.5 1.6-2.3 2.9v7.6h-2.1zM721.1 84.8c-1.7.8-3.4 1.2-4.9 1.2-1.2 0-2.2-.3-3.2-.9-.9-.6-1.7-1.4-2.2-2.5s-.8-2.3-.8-3.5c0-1.2.3-2.3.8-3.4s1.3-2 2.2-2.6c1-.6 2-.9 3.2-.9 1.6 0 2.8.6 3.7 1.7.9 1.1 1.4 2.8 1.4 5.1v.5h-9c0 .9.2 1.7.6 2.5s.9 1.3 1.5 1.7 1.3.6 2.1.6c1.4 0 3-.5 4.7-1.4v1.9zm-8.7-6.9h6.5v-.3c0-1.1-.3-1.9-.8-2.5s-1.2-.9-2.1-.9c-.9 0-1.6.3-2.3 1s-1.1 1.4-1.3 2.7zM743.3 78v-4.1l-3.1 2.2-1.1-1.9 3.6-1.8-3.6-1.8 1.1-1.9 3.1 2.2v-4.1h2.2v4.1l3.1-2.2 1.1 1.9-3.6 1.8 3.6 1.8-1.1 1.9-3.1-2.2V78h-2.2zM754.1 86.3H752L763.5 67h2.1l-11.5 19.3z"/><g transform="translate(-77.87 -56.863)"><path fill="#C94328" d="M180.3 60.7c-.4 0-.9.2-1.2.6-.4.4-.3.7.2 1 .5.4.6.8.5 1.8-.1.7-.2 2.6-.3 4.1-.1 2.6-.2 4.7-.4 5.4-.1.2-.1.6-.1 1 0 .6-.1.7-1.4 1-.5.1-1 .2-1.4.4 0-.2-.1-.5-.1-.7-.1-.4-.2-.8-.2-.9 0-.1-.3-1.2-.7-2.5-.2-.7-.4-1.5-.6-2.3-.2-.6-.3-1.2-.5-1.6-.3-1.2-.4-1.7 0-1.8.5-.1.5-1 0-1.5-.1-.1-.1-.1-.2-.1-.5-.2-1.6 0-1.8.4-.3.6-.1 1.3.4 1.3.3 0 .5 1.8.6 4s.2 5 .1 7.2V84c-.1 2.1-.1 3.5-.1 4.5s0 1.6.1 2c0 .2-.2.4-.6.5-.8.2-1.2.3-1.3.7-.1.4 0 1 .4 2.3.3 1.2.4 2 .4 2.3-.1.3-.3 0-.7-.9-.3-.6-.6-1.1-.8-1.1-.2 0-.3-.2-.4-.5-.1-.2-.5-1-1.1-1.7-.5-.7-1.1-1.4-1.2-1.4-.1 0-.1.6-.2 1.3-.1.7-.1 1.6 0 2 .1.5 0 .7-.8 1-.5.2-1.3.4-1.8.4-.9 0-.9 0-1.5-1.3-.7-1.7-1.9-3.6-2-3.2-.1.1-1.5-1.1-3.3-2.6s-3.5-2.8-3.7-2.8c-.2 0-.2 2.1 0 4.6.2 2.1.3 3.9.3 4.5v.2c-.1.1.2.9.7 1.7 1.2 2.2 1.2 2.5.4 3.5-.9 1.2-1.6 1.7-1.9 1.3-.1-.2-.9-.7-1.7-1.3-.5-.3-1-.6-1.5-1 .2.6.3 1.2.5 1.7.3 1 .6 1.8.7 2 .1.1 0 .7-.3 1.2-.2.3-.3.6-.5.9l1.7 2c1.4 1.7 1.7 2.1 1.4 2.3-.1.1-.3 0-1-.7s-1.8-2.1-3.8-4.5c-2.9-3.6-4.4-5.7-4.4-5.9.1-.3 0-.4-.3-.3-.3.1-.7-.2-1.3-1.1l-.9-1.2-2.1.3s-1.4.2-2.1.4c-.1.7-.2 1.4-.3 2-.1 1-.2 1.5-.1 1.9.1.4.4.7.9 1.2.6.6 1.1 1.3 1.2 1.6 0 .3.1.4.4.3.2-.1 2.1 1.6 5.3 4.7l5 4.8-1 1-1 1c-.7-.5-1.3-1.1-2-1.6-2.8-2.2-4.5-3.2-5-3-.4.2 1.1 2 3.1 3.5.6.5 1.1 1 1.1 1.2 0 .1-.3.3-.6.6-.7.5-1.6 1.1-1.8 1-.1 0-.3.1-.6.6-.3.4-.7 1.1-1.3 2-.5.9-1 1.9-1.5 2.8-.4-.1-.8-.3-1.1-.4-1-.4-3.2-1.4-5-2.4-1.9-1-3.5-2-3.4-2.2.1-.3 0-.3-.4-.2-.3.1-1-.2-1.7-.6-.6-.3-.9-.5-1.2-.5s-.8.2-1.6.6c-.9.5-1.7.8-1.8.8-.3-.1-.4.7-.2 2.5.1.6.2 1.3.3 1.9.5.2 1 .3 1.5.5 1.1.4 1.5.6 1.5 1s.1.4.4.2c.3-.2 1.9.3 6.7 2.3 3.5 1.4 6.3 2.6 6.3 2.6 0 .1-.3.4-.7.8-.2.2-.4.5-.6.7l-3.1-1.1-3.1-1.1c-.4 1-.7 2-1 3-.1.4-.2.7-.3 1.1-.3 1.3-.4 2.1-.3 2.1.1.1.2.6.2 1.2s.1 1 .3 1.1c.1 0 .3.1.4.2.1 0 .1.7 0 1.5-.1.5-.1 1-.1 1.5.7.1 1.5.2 2.2.4.7.1 1.5.2 2.2.4 0 .3-.1.6-.1.9-.1.5-.2.9-.2.9-.1 0-1-.3-2.1-.7-1-.4-2-.8-2.2-.8-.2 0-.3.4-.4 1.8-.1 1.2-.2 1.8-.3 1.8-.2-.1-.4.4-.6 1.4-.2.9-.3 2.3-.3 3.9v2.6c0 .5-.1.6-.3.7-.2.1-.3.3-.2 1.4.1.5.2 1.1.3 2 .2 1.1.4 2.1.7 3.2l.5-.1c.2-.1.4-.1.5.2.1.3.3.9.6 2.1.5 1.7.7 2.5.6 2.9-.1.2 0 .5.1 1.1.2.6.5 1.4 1 2.7.7 1.6 1 2.3 1.3 2.7.2.4.4.4.6.3.2-.1.5-.2.7-.3.1-.1.4.1.7.2.2.2.4.2.9-.1.5-.3 1.3-1.1 2.9-2.4.5-.4.8-.6.9-.4.1.1.4.6.6 1 .3.4.7 1.1 1.1 1.6.1.1.2.2.2.3.5.7.7 1.2.5 1.4-.1.1-.5-.4-.9-1.1-.2-.4-.5-.8-.7-1.2l-1.4.8c-.9.5-1.4.9-1.3 1 .1.2-.3.5-1.4 1-1.5.7-1.6.7-1.3 1.2.2.4.2.6 0 .6-.1 0-.3 0-.5-.3s-.6-.8-1.1-1.6c-.8-1.4-1.3-2.3-1.7-2.7-.4-.5-.6-.6-.9-.4-.3.1-.5 0-.8-.4-.2-.5-.5-.6-1-.4-.2.1-.4.1-.7.2.4 1 .9 2.1 1.4 3.1.5 1 1 2 1.6 3l-1 .5c-.8.4-.9.6-.8 1.1.1.3.2.6.5 1.1.4.9 1.1 2 2 3.3.9 1.3 2 2.7 3.1 4.1 1 1.2 2.1 2.3 3.3 3.5.5-.5 1-1.1 1.6-1.6.9-1 1.7-1.5 1.8-1.4.1.1.4.3.6.5.4.2.1.6-2.1 2.9-2.1 2.3-2.5 2.7-2.2 3 .2.2.5.6.7.9.2.3.5.6.7.7.2.1.5.3.7.4.2.1.6.3.9.3.6.1.9-.2 2.9-2.5l2.2-2.7c.4.4.9.7 1.3 1.1.4.4.9.7 1.2.9.2.1.3.2.4.3.1.1.7 1 1.3 2 .4.6.7 1.2 1.1 1.8-.2.3-.4.7-.6 1-.4.6-1 2.2-1.4 3.6-.6 2.2-.9 3.3-1.2 3.9s-.5.5-.9.4c-.9-.2-.9-.4-.5-1.9.1-.3.2-.6.3-1-.3.2-.7.5-1 .7-.7.5-1.1.6-1.5.4-1.3-.8-2.4-1.6-3.1-1.9l-.4-.2c-.5-.1-.5.2 0 .7.3.3.8.8 1.5 1.3.6.5 1.2.9 1.8 1.4-.3.6-.7 1.3-1 1.9-.5 1.1-1.1 2.4-1.3 2.9-.1.3-.2.7-.3 1 .3-.4.5-.7.8-1 .4-.6 1-1.2 1.2-1.4.2-.2.7-.8 1.1-1.4.3-.4.5-.7.8-1.1.4.2.9.4 1.3.6 1 .4 1.5.7 2-.1.5-.7.9-2.4 2-5.8.4-1.1.6-1.7.8-2.1s.4-.5.9-.7c.7-.3 1.1-.3 2.3 0 .8.2 1.5.3 1.6.2 0-.1.1-.1.2 0s.6.2 1 .3 1.9.7 3.2 1.2c.7.3 1.4.5 2.1.8l12.3-27.3C167 167.7 159 157.8 159 146c0-14.1 11.4-25.5 25.5-25.5S210 131.9 210 146c0 12.1-8.4 22.2-19.7 24.8l6.7 14.8 2.7-.9c-.6 1-1.2 1.9-1.9 2.8l4.8 10.7c.6-.3 1.2-.7 1.7-1.1.9-.6 1.7-1.1 2.5-1.8-.1.2-.2.4-.3.7-.1.2-.2.5-.3.7.2-.3.3-.5.5-.8.5-.8 1.4-1.7 1.2-1.1 0 .2.1 0 .3-.3.3-.5.5-.6.7-.5.2 0 .3 0 .4-.2.1-.4 1.1-1.3 1.4-1.2.1 0 .3.3.4.5.1.2.1.4-.1.6-.2.2-.6.6-1.5 1.3-.9.7-1.4 1-1.6 1.1-.2.1-.2 0-.2-.3 0-.2 0-.4.1-.5-.1.2-.2.4-.2.7-.1.4-.4.7-.6.9-.4.2-.4.4 0 1 .2.3.2.5.2.5l.9 1.8.9 1.8c.4-.2.8-.4 1.3-.6.3-.2 1.1-.6 2.1-1.1 1-.6 2.2-1.3 3.3-2 .1 0 .1-.1.2-.1 1.3-.8 2.6-1.6 3.9-2.5l.7 1c.4.5.6.8 1 .8s1-.4 2.2-1.2c.5-.3 1-.7 1.5-1l2.9 3.5c2.2 2.6 3 3.5 3.4 3.4.3-.1 1.7-.9 3.2-1.9 1.3-.9 2-1.4 2.6-2 .6-.6 1.1-1.2 2.1-2.5.7-.9 1.3-1.8 1.9-2.7l-9.9-8.3-9.9-8.3c.2-.2.3-.4.5-.6.1-.2.3-.4.4-.5l4.2 3c2.3 1.7 6.5 4.8 9.3 7l5.1 4c.2-.2.3-.4.5-.6.9-1.2 1.7-2.4 2.5-3.6 1-1.4 1.9-2.9 2.7-4.4-.2-.1-.3-.2-.5-.3-.3-.2-.8-.4-1.2-.6-.7-.3-1-1.5-.5-2 .1-.1.1-.3 0-.3-.1-.1.3-1 1-2.5.5-1 .7-1.6.8-1.9.1-.4.1-.5 0-.6-.2-.1-.2-.3-.1-.6.2-.4-.5-.8-5.5-2.8l-5.7-2.4c.3-.6.5-1.2.7-1.8.3-.8.4-1.3.5-1.6 0-.3 0-.4-.2-.5-.3-.2-.3-.4 0-1.2.2-.5.3-1 .3-1.1 0-.1-.9-.4-1.9-.8-1-.3-1.8-.7-1.8-.8 0-.1.8.1 1.9.4.7.2 1.4.3 2.3.6 2.7.7 4.2 1 4.3.8.1-.2.3-.3.4-.2.2 0 .3-.1.5-.5s.4-1.1.7-2.2l.3-1.5c.4 0 .9.1 1.3.1 1.3.1 2.2-.2 2.6-.8.1-.2.3-1 .4-1.9.2-1.3.2-1.6.5-1.5.4 0 .9-.8.9-1.9 0-.4 0-1.4.1-2.3 0-1.4 0-1.5-.5-1.5-.3 0-.5-.2-.6-.4-.1-.3-1.6-.4-6-.5-2 0-4-.1-5.9-.1l-.3-1.5c-.2-.8-.4-1.9-.5-2.5-.1-.3-.1-.7-.2-1 3.9-.4 7.9-.9 11.8-1.3 3.9-.4 7.8-.9 11.8-1.4-.1-.7-.2-1.5-.2-2.2-.2-1.4-.4-2.9-.7-4.3-.4-2.1-.9-4.2-1.5-6.3l-12.8 3.7-12.8 3.7c-.1-.7-.1-1.4-.2-1.9.2-.1 5.5-2.7 11.7-5.2 6.3-2.6 6.5-2.7 7.5-3.1 7.8-3.4 8.2-10.6 6.6-14.3-1.7-3.6-7.1-7.1-13.6-3.4-1.4.8-2 1.1-8.1 5.5-3.6 2.7-7.3 5.3-10.9 7.9-.2-.2-.4-.5-.5-.7-.3-.4-.5-.8-.5-.9 0-.1-.1-.4-.3-.7-.3-.4-.2-.4 1.4-1.7 1.6-1.2 1.7-1.4 1.4-1.7-.3-.3-.2-.5.1-.9.2-.3.3-.5.2-.6-.1-.1-.1-.2.1-.2.2-.1.2-.2-.1-.5-.2-.3-.4-.4-.4-.2s-.4.3-.9.4c-.4.1-.9.1-1-.1-.2-.2-.6.1-1.7 1.3l-1.5 1.5c-.2-.2-.4-.4-.5-.6-.3-.3-.6-.5-.7-.4-.1.1-.5-.2-.9-.6-.3-.3-.5-.5-.8-.7 1.1-1.2 2.3-2.3 3.4-3.5 3.1-3.1 3.4-3.5 3.1-3.9-.1-.3-.1-.7.1-.9.3-.3.3-.6.1-1-.2-.3-.2-.7-.1-.8.2-.3.2-.7-.1-1.1-.3-.5-.9-1.1-1.9-1.8l-.1-.1c-.8-.6-1.3-1-1.6-1.1-.3-.1-.3 0-.5.2-.2.3-.5.3-.9.2-.6-.2-.7-.1-2.6 2.7-1.7 2.5-2.5 3.7-3 4.2s-.7.3-1.2.1c-1-.4-1-.6-.7-1.6.1-.4.1-.8 0-1-.2-.2-.1-.5.4-1.6.2-.5-.3-.2-.9.4-.5.5-.6.5-1.4.1-.7-.4-.9-.5-.9-.9 0-.2-.1-.5-.3-.6-.2-.1-.3-.3-.2-.5.1-.2.1-.5 0-.6-.1-.1-.3-.1-.4.1-.1.2-.2.2-.2 0 0-.1-.5-.4-1.2-.8-.8-.4-1.9-.9-3.3-1.4-.9-.3-1.2-.3-1.3 0-.1.3-.3.3-.8.2-.5-.2-.6-.3-.5-.6.1-.2 0-.5-.1-.6-.1-.1-.3.1-.5.6-.2.7-.3.8-.9.7h-.4c-1.1-.1-1.2-.4-.9-2 .2-1 .4-1.6.6-1.6.3.1.7-1 .3-1.2-.2-.1-.2-1.7-.3-3.6 0-1.9-.1-4.2 0-5.8.1-1.4.2-3.4.1-4.3 0-1.7.1-4.2.3-6.2s.5-3.7.8-3.8c.7-.3.6-1.2-.2-1.6-.5-.3-.8-.3-1.3-.1-.7.3-.7 1.2 0 1.5.3.1.2.7-.3 1.8-.4.9-.6 1.6-.5 1.7.1.1-.3 1.5-.7 2.9-.4 1.4-.8 2.9-1 3-.1.2-.7.1-1.3-.1-.6-.2-1.2-.4-1.3-.7-.1-.3-.3-1.6-.4-3.4-.1-1.7-.2-3.8-.1-5.4 0-1.1-.1-2.4-.2-2.8-.2-.6-.1-.8.4-1 .8-.3.6-1.5-.2-1.7-.8-.2-1.5.1-1.8.5-.3.4-.3.9.4 1.1.4.2.5.5.2 1.7-.2.8-.6 2.8-.9 4.4-.3 1.6-.5 3.1-.6 3.4-.1.3-.3 1.3-.5 2.1-.2.9-.4 1.7-.4 1.9 0 .2-.1.8-.2 1.4-.1.6-.2 1.2-.4 1.2-.1 0-.6-.9-1.1-1.9-.3-.6-.6-1.2-.9-1.9-.2.2-.3.5-.4.7-.2.4-.7 1.2-.9 1.8-.5 1.2-1 1.5-1.1.6 0-.3-.1-.8-.2-1-.1-.3-.3-1.3-.4-2.4-.2-1-.4-2.1-.5-2.3-.2-.6-.7-3.9-1-6.1-.1-1-.4-2.3-.6-2.7-.2-.5-.2-.8.2-.9.6-.2.8-1 .3-1.5-.2-.2-.5-.3-.8-.3.3-.5.2-.5.2-.5zm-1.7 15.4c.3 0 .4.1.3.4-.2.6-.8.8-.7.2 0-.3.1-.6.4-.6zm14.2.2c.3 0 .6.3.6.6 0 .2 0 .4-.1.4-.3 0-.9-.6-.8-.9 0-.1.1-.2.2-.2 0 .1 0 .1.1.1zm-15.9.2c.2 0 .3.3.2.8 0 .4-.1.8-.2.8s-.2-.3-.2-.8c-.1-.4 0-.8.2-.8zm17.8.2c.2 0 .3.3.2.5 0 .3-.2.5-.4.5s-.3-.3-.2-.5c.1-.3.3-.5.4-.5zm-.4 1.3l.1.1c.1.2 0 .5-.1.6-.1.1-.2 0-.1-.4 0-.1 0-.2.1-.3zm-12.4 27.3l.4 2.7-2.2.3-.2-1.1-1.8.3.3 2.1 2.3-.3.2 1.6-2.3.3.2 1.6 1.2-.2.2 1.6-4.5.7-.2-1.6.8-.1-.8-5.3-.8.1-.2-1.6 7.4-1.1zm5.4 2.4h.2v2.2c-1.1 0-1.7.2-1.8 1.3v1.3h.6v1.6l-3.5-.1v-1.6h.5l.1-2.9h-.5v-1.6l2.3.1.4.8c.3-.6.6-1.1 1.7-1.1zm3.8.7c.2 0 .4 0 .7.1 1.4.3 2.4 1.2 2.5 2.3.1.5 0 1.4-.4 2l-3.8-.7c0 .3 0 1 1 1.2.4.1 1 .2 1.8-.2l.8 1.4c-1 .6-2.1.7-3.3.4-1.5-.3-3-1.6-2.6-3.9.4-1.8 1.7-2.7 3.3-2.6zm.2 1.7c-.6 0-.8.5-.9.8l1.8.4c.1-.5.1-1-.7-1.1-.1-.1-.2-.1-.2-.1zm6.1.2c.5 0 1.1.1 1.6.3 1.4.6 2.1 1.7 2 2.8 0 .5-.3 1.4-.8 1.9l-3.6-1.5c-.1.3-.2 1 .8 1.4.4.2 1 .4 1.8.1l.5 1.5c-1.1.4-2.2.3-3.3-.2-1.4-.6-2.6-2.1-1.7-4.3.6-1.3 1.6-1.9 2.7-2zm.7 1.8h-.1c-.4.1-.7.4-.8.6l1.7.7c.2-.4.3-1-.5-1.3h-.3zm-32.2.6c.8 0 1.5.3 2 1.1l1.2 2 .6-.4.8 1.3-2.2 1.4-.5-.3c-.1.8-.6 1.3-1 1.5-1 .6-2.4.7-3.1-.5-.7-1.2-.2-2.5 1-3.3.6-.4 1.2-.3 1.3-.3l-.2-.4c-.3-.5-.8-.3-1.4 0-.6.4-1 1-1.3 1.4l-1.2-.9c.3-.5.9-1.6 1.8-2.1.6-.1 1.4-.5 2.2-.5zm44.1 2.6h.2c.8 0 1.6.4 2.1.9.7.7 1.3 1.7 1 2.7l.8-.7 1.5 1.5-2.1 2.2-1.6-1.6c.6-.7.5-1.5-.1-2.1-.3-.2-.8-.4-1.1-.1-.9.9 2.8 4.1.8 6.2-1.3 1.4-3.1.6-4.2-.4-.9-.9-1.1-1.9-1.1-2.6l-.8.6-1.5-1.5 2.2-2.2 1.6 1.6c-.7.7-.1 1.6.3 2 .3.3.8.7 1.2.3.7-.7-3-3.7-.8-5.9.5-.6 1.1-.8 1.6-.9zm-43.8 1.3c-.1 0-.3 0-.4.1-.4.3-.5.6-.3.9.2.3.5.3.9.2.3-.2.5-.5.5-.8l-.2-.4h-.5zm-6.7.6c.8 0 1.5.5 2 1.1l1.4 1.5.4-.4 1.1 1.2-2.2 2.1-2.3-2.4c-.3-.3-.8-.9-1.3-.3-.5.4-.1 1 .2 1.4l1.2 1.3.6-.6 1.1 1.2-2.7 2.6-1.1-1.2.4-.4-2-2.1-.4.4-1.1-1.2 1.9-1.8.7.4c-.1-.7 0-1.4.6-1.9.6-.7 1-.9 1.5-.9zm-4.8 6.3c.6 0 1.3.2 1.9.6 1.7 1.1 1.9 3 .8 4.6-1 1.5-2.8 2.3-4.6 1.1-1.7-1.1-1.7-3.2-.8-4.6.7-1.1 1.6-1.7 2.7-1.7zm59.2.3c1.2 0 2.3.6 2.9 1.6 1 1.6.8 3.5-.9 4.6-1.7 1.1-3.5.5-4.5-1.1-1-1.5-1-3.5.9-4.7.6-.2 1.1-.3 1.6-.4zm-60 1.9c-.2 0-.4.1-.5.3-.3.4.1 1.1.9 1.6.8.6 1.6.6 1.9.2.3-.4-.1-1.1-.9-1.6-.6-.4-1.1-.5-1.4-.5zm61.1.4h-.2c-.3 0-.7.2-1.1.4-.8.5-1.2 1.2-.9 1.7.3.4 1 .3 1.8-.2s1.2-1.2.9-1.7c-.1-.1-.3-.2-.5-.2zm-68.3 2.4l6.9 3.1.3-.7 1.5.7-1.5 3.3-1.5-.7.2-.5-5.5-2.5-.2.5-1.4-.7 1.2-2.5zm74.4.7c.7 0 1.5.3 2 1.6.3.6.5 1.4.4 1.8l-1.6-.1c0-.1 0-.4-.2-.7-.1-.2-.3-.3-.7-.1l-1 .4.4 1-1.5.6-.4-1-2.7 1.2.3.7-1.5.6-1.4-3.4 1.5-.6.2.5 2.7-1.2-.2-.5 1.5-.6.2.5 1-.4c.2-.2.6-.3 1-.3zm-.2 4.7l.2.6 1.1-.3 1.3 2-1.8.5.3 1.1-1.5.4-.3-1.1-2.1.6c-.4.1-1 .2-.8.6 0 .2.3.5.4.7l-1.5.4c-.2-.3-.6-1.1-.6-1.4-.5-1.8.5-2.1 2-2.6l2.1-.6-.2-.6 1.4-.3zm-71.3.1c.5 0 1.3.1 1.8.5l-1 3.7c.3 0 1 0 1.3-1 .1-.4.2-1-.1-1.8l1.4-.7c.5 1.1.5 2.1.2 3.3-.4 1.5-1.8 2.9-4.1 2.3-1.9-.5-2.7-2.2-2.2-4 .4-1.4 1.4-2.3 2.5-2.4 0 .1.1.1.2.1zm-.3 2h-.1c-.3 0-.5.2-.7.7-.2.7.4 1.1.7 1.2l.5-1.8c-.1 0-.3-.1-.4-.1zm73.2 2.9l.2 3.3-1.6.1v-.4l-.9.3c-.6.2-1.4.4-1.8.4.5 0 1.7 0 2.9.3l1.4.3.1 2.3-1.6.6c-.9.3-2.2.6-2.6.7.4 0 1.3.1 2 .2l.7.2v-.5l1.6-.1.2 3-1.6.1v-.5l-4.6-1.2-.1-2.6 2.7-1-2.8-.7-.1-2.5 4.5-1.6v-.5l1.4-.2zm-76.4 1.8l2.8.2-.1 1.8c-.6 0-1.3.1-1.3.7-.1.7.7 1.1 1.5 1.2.8.1 1.5-.4 1.5-1.2.1-.6-.2-1.1-.6-1.5l1.3-1c.6.6 1.1 1.8 1 3.1-.1 1.8-1.3 3.3-3.5 3.1-2.2-.2-3-1.7-2.9-3.2.1-.8.6-1.3.8-1.5l-.6-.3.1-1.4zm1.5 7c.1 1.1.4 1.7 1.5 1.6l1.3-.1-.1-.6 1.6-.1.3 3.5-1.6.2v-.5l-2.9.3.1.5-1.6.2-.2-2.3.8-.4c-.6-.3-1.2-.5-1.3-1.8l2.1-.5zm70.5 2h.5c1.4.3 2 1.6 1.7 2.9-.1.7-.6 1.1-.7 1.1l.4.1c.5.1.8-.4.9-1 .1-.7 0-1.4-.2-1.9l1.5-.2c.2.5.6 1.7.3 2.8-.3 1.4-1.2 3.2-3.1 2.8l-2.3-.5-.1.7-1.5-.3.5-2.6.6-.2c-.5-.6-.5-1.3-.5-1.8.2-.9.9-1.9 2-1.9zm0 2.3c-.3 0-.5.2-.6.5-.1.4.1.7.2.9l.5.1c.1 0 .4-.1.5-.6.1-.5-.1-.7-.5-.8 0-.1 0-.1-.1-.1zm-65.9.4l.8 2.5-.4.4c.7.3 1.1.9 1.2 1.4.3 1.1.1 2.5-1.3 2.9-1.3.4-2.5-.5-2.9-1.8-.2-.7 0-1.2.1-1.3l-.4.1c-.5.2-.5.7-.3 1.3.2.7.7 1.2 1.1 1.6l-1.2.9c-.4-.4-1.3-1.2-1.6-2.3-.4-1.4-.4-3.4 1.5-3.9l2.3-.7-.2-.7 1.3-.4zm-.7 3.6l-.4.1c0 .1-.3.3-.1.8.1.5.5.6.8.5.3-.1.5-.4.4-.8-.2-.3-.5-.6-.7-.6zm63.6.8l1.5.6-.2.5 2.7 1.1.2-.5 1.5.6-.9 2.1h-.9c.4.5.8 1 .3 2.2l-2.1-.8c.4-1 .4-1.7-.6-2.1l-1.2-.5-.2.6-1.5-.6 1.4-3.2zm-61.7 3.3c.9 0 1.7.6 2.5 2l2.4 4-1.4.8-.4-.6-4.7 2.7.4.6-1.4.8-2.3-4c-1-1.8-.9-3 .3-3.7.9-.5 1.5-.5 2.2.1-.2-.9 0-1.9 1-2.5.5-.1 1-.2 1.4-.2zm60.8 1.9h.2c.6 0 1.2.2 1.8.6 1.7 1.1 2 2.9 1 4.5-.8 1.2-2 1.8-3.1 1.5-.4-.1-1.3-.5-1.8-1.1l2.1-3.3c-.3-.1-1-.3-1.5.5-.2.4-.5.9-.4 1.8l-1.6.2c-.2-1.2.1-2.2.8-3.3.4-.7 1.3-1.4 2.5-1.4zm-60.4.8c-.2 0-.3.1-.5.2-.5.3-.8.8-.4 1.4l.5.8 1.9-1.1-.5-.9c-.2-.3-.4-.5-.8-.5-.1.1-.1.1-.2.1zm-2.7 2.1c-.2 0-.3.1-.5.2-.5.3-.6.8-.4 1.2l.4.7 1.6-.9-.4-.6c-.2-.5-.4-.7-.7-.6zm64.3 0l-1 1.6c.4.2.9.4 1.3-.2.4-.7-.1-1.2-.3-1.4z"/><circle fill="none" cx="184.3" cy="145.9" r="30.5"/></g></svg>