<svg xmlns="http://www.w3.org/2000/svg" viewBox="0 0 960 80"><path d="M25.8 25.9V37h13.5V25.9h3.4v25.7h-3.4V39.9H25.8v11.8h-3.4V25.9h3.4zm33.3 0l10 25.7h-3.8l-2.8-7.7H51.7l-2.9 7.7h-3.5l10-25.7h3.8zM61.5 41l-4.3-12h-.1l-4.4 12h8.8zm25.7-11.4c-1.3-.9-2.9-1.4-4.7-1.4-1.5 0-2.9.3-3.9.9-1.1.6-2 1.3-2.7 2.3-.7 1-1.2 2.1-1.6 3.3-.3 1.2-.5 2.5-.5 3.9 0 1.5.2 2.9.5 4.2.3 1.3.9 2.4 1.6 3.4.7 1 1.6 1.7 2.7 2.3s2.4.9 4 .9c1.1 0 2.1-.2 3-.6.9-.4 1.6-.9 2.3-1.5.6-.7 1.1-1.4 1.5-2.4.4-.9.6-1.9.6-3h3.4c-.3 3.2-1.5 5.8-3.3 7.6-1.9 1.8-4.5 2.7-7.8 2.7-2 0-3.7-.3-5.2-1s-2.7-1.6-3.7-2.8c-1-1.2-1.7-2.6-2.2-4.2-.5-1.6-.7-3.4-.7-5.3s.3-3.6.8-5.3c.5-1.6 1.3-3.1 2.3-4.3 1-1.2 2.3-2.2 3.8-2.9 1.5-.7 3.3-1.1 5.2-1.1 1.3 0 2.6.2 3.8.5 1.2.4 2.3.9 3.2 1.6.9.7 1.7 1.6 2.3 2.6.6 1 1 2.2 1.2 3.6h-3.4c-.3-1.7-1.2-3.1-2.5-4zm13.9-3.7v12.8l13-12.8h4.4l-10.8 10.4L119 51.6h-4.3l-9.3-13-4.3 4v9h-3.4V25.9h3.4zm33.4 3.6c-1.1-.8-2.6-1.2-4.4-1.2-.7 0-1.4.1-2.1.2-.7.1-1.3.4-1.9.7-.5.3-1 .8-1.3 1.4-.3.6-.5 1.3-.5 2.1s.2 1.4.7 1.9c.5.5 1.1.9 1.9 1.2.8.3 1.7.6 2.6.8 1 .2 2 .4 3 .7 1 .2 2 .5 3 .8 1 .3 1.9.8 2.6 1.3.8.6 1.4 1.2 1.9 2.1.5.8.7 1.9.7 3.2 0 1.4-.3 2.5-.9 3.5-.6 1-1.4 1.8-2.4 2.4-1 .6-2 1.1-3.2 1.3s-2.4.4-3.5.4c-1.4 0-2.8-.2-4.1-.5-1.3-.4-2.4-.9-3.4-1.6s-1.7-1.7-2.3-2.8c-.6-1.1-.8-2.5-.8-4h3.2c0 1.1.2 2 .6 2.8.4.8 1 1.4 1.7 1.9s1.5.9 2.4 1.1c.9.2 1.8.4 2.8.4.8 0 1.5-.1 2.3-.2.8-.1 1.5-.4 2.1-.7s1.1-.8 1.5-1.4c.4-.6.6-1.4.6-2.3 0-.9-.2-1.6-.7-2.2-.5-.6-1.1-1-1.9-1.4-.8-.3-1.7-.6-2.6-.8-1-.2-2-.4-3-.7-1-.2-2-.5-3-.8-1-.3-1.9-.7-2.6-1.2-.8-.5-1.4-1.1-1.9-1.9-.5-.8-.7-1.8-.7-2.9 0-1.3.3-2.4.8-3.4.5-.9 1.2-1.7 2.1-2.3.9-.6 1.9-1.1 3-1.4 1.1-.3 2.3-.4 3.4-.4 1.3 0 2.5.2 3.7.5 1.1.3 2.1.8 3 1.5.9.7 1.5 1.5 2 2.5s.8 2.2.8 3.7h-3.2c-.2-2.2-.8-3.5-2-4.3zM163 16.3h167.9v46.4H163zm-13 46.4h13V16.4"/><path d="M174.7 28.9v9.9h13.6v-9.9h2.2v22.8h-2.2v-11h-13.6v11.1h-2.2V28.9h2.2zm29.5 0l9 22.8h-2.3l-2.8-7.1h-10.4l-2.8 7.1h-2.3l9.2-22.8h2.4zm3.1 13.9l-4.4-11.7-4.6 11.7h9zm23.7-9.4c-.4-.7-1-1.3-1.6-1.7-.6-.5-1.3-.8-2.1-1.1-.8-.2-1.6-.4-2.4-.4-1.5 0-2.8.3-3.9.9-1.1.6-2 1.3-2.7 2.3s-1.2 2-1.5 3.2c-.3 1.2-.5 2.4-.5 3.7 0 1.2.2 2.5.5 3.7.3 1.2.8 2.3 1.5 3.2s1.6 1.7 2.7 2.3c1.1.6 2.4.9 3.9.9 1.1 0 2-.2 2.9-.6.9-.4 1.6-.9 2.2-1.6.6-.7 1.1-1.4 1.5-2.3.4-.9.6-1.8.7-2.9h2.2c-.1 1.4-.5 2.7-1 3.8-.5 1.1-1.2 2.1-2 2.9-.8.8-1.8 1.4-2.9 1.8-1.1.4-2.3.6-3.7.6-1.8 0-3.4-.3-4.7-1-1.4-.7-2.5-1.5-3.4-2.6-.9-1.1-1.6-2.3-2-3.8-.4-1.4-.7-2.9-.7-4.5s.2-3.1.7-4.5c.4-1.4 1.1-2.7 2-3.8.9-1.1 2-2 3.4-2.6 1.4-.7 2.9-1 4.7-1 1.1 0 2.1.2 3.2.5 1 .3 2 .8 2.8 1.4.8.6 1.5 1.4 2.1 2.3.6.9.9 2 1.1 3.2h-2c-.2-.8-.6-1.6-1-2.3zm9-4.5v12.3l13.3-12.3h2.9L246 38.3l10.7 13.4h-2.8l-9.5-11.9-4.4 4.1v7.8h-2.2V28.9h2.2zm34.3 0v1.9h-13.6V39h12.7v1.9h-12.7v9h13.8v1.9h-15.9V28.9h15.7zm13.7 0c.9 0 1.8.1 2.7.4.8.2 1.6.6 2.2 1.1.6.5 1.1 1.1 1.5 1.9.4.8.6 1.6.6 2.7 0 1.5-.4 2.7-1.1 3.8-.7 1.1-1.9 1.7-3.3 2v.1c.7.1 1.4.3 1.9.6s.9.7 1.2 1.1c.3.4.5 1 .7 1.6.1.6.2 1.2.3 1.9 0 .4 0 .9.1 1.4 0 .6.1 1.1.1 1.7.1.6.2 1.1.3 1.6.1.5.3.9.6 1.2h-2.4c-.1-.2-.2-.5-.3-.8-.1-.3-.1-.6-.2-1 0-.3-.1-.7-.1-1 0-.3 0-.6-.1-.8 0-.8-.1-1.6-.2-2.4-.1-.8-.3-1.5-.6-2.1-.3-.6-.8-1.1-1.3-1.5-.6-.4-1.4-.6-2.4-.5h-8.3V52h-2.2V28.9H288zm-.2 10.8c.7 0 1.3-.1 1.9-.3.6-.2 1.1-.5 1.6-.9.4-.4.8-.8 1.1-1.4.3-.5.4-1.2.4-1.9 0-1.4-.4-2.5-1.2-3.3-.8-.8-2-1.2-3.7-1.2h-8.1v9h8zm12.6 7.5c.4.8.9 1.4 1.6 1.9.7.5 1.5.8 2.4 1 .9.2 1.9.3 2.9.3.6 0 1.2-.1 2-.3.7-.2 1.4-.4 2-.8.6-.4 1.1-.9 1.5-1.4.4-.6.6-1.3.6-2.1 0-.6-.1-1.2-.4-1.7-.3-.5-.7-.9-1.1-1.2-.5-.3-1-.6-1.5-.8-.6-.2-1.1-.4-1.6-.5l-5.1-1.2c-.7-.2-1.3-.4-1.9-.6-.6-.3-1.2-.6-1.6-1-.5-.4-.8-.9-1.1-1.6-.3-.6-.4-1.4-.4-2.3 0-.6.1-1.2.3-2 .2-.7.6-1.5 1.2-2.1.6-.7 1.4-1.2 2.4-1.7s2.3-.7 3.9-.7c1.1 0 2.2.1 3.2.4 1 .3 1.9.7 2.7 1.3.8.6 1.4 1.3 1.8 2.2.5.9.7 1.9.7 3.1h-2.2c0-.9-.2-1.6-.6-2.3-.4-.7-.8-1.2-1.4-1.6-.6-.4-1.2-.8-2-1-.7-.2-1.5-.3-2.3-.3-.7 0-1.5.1-2.2.2s-1.3.4-1.8.8-.9.8-1.3 1.4c-.3.6-.5 1.3-.5 2.1 0 .5.1 1 .3 1.4.2.4.4.7.8 1 .3.3.7.5 1.1.7.4.2.9.3 1.3.4l5.6 1.4c.8.2 1.6.5 2.3.8.7.3 1.3.7 1.9 1.2s1 1 1.3 1.7c.3.7.5 1.5.5 2.4 0 .3 0 .6-.1 1s-.2.9-.4 1.4c-.2.5-.5 1-.9 1.5s-.9.9-1.5 1.3c-.7.4-1.5.7-2.4 1s-2.1.4-3.5.4c-1.3 0-2.6-.2-3.7-.5-1.2-.3-2.1-.8-2.9-1.4-.8-.6-1.4-1.5-1.9-2.5-.4-1-.6-2.2-.6-3.6h2.2c-.2 1.1 0 2.1.4 2.9z" fill="#FFF"/><path fill="#666" d="M622.9 56.1v4.8c.3-.5.6-.9 1.2-1.1s1.1-.4 1.8-.4 1.3.1 1.9.4 1 .6 1.3 1.1c.4.4.6 1 .8 1.6s.3 1.2.3 1.9-.1 1.3-.3 1.9-.4 1.1-.8 1.5c-.4.4-.8.8-1.3 1s-1.2.4-1.9.4c-.2 0-.5 0-.8-.1s-.6-.1-.8-.2c-.3-.1-.5-.3-.8-.4-.2-.2-.5-.4-.6-.7V69h-1.5V56.1h1.5zm5.5 6.8c-.1-.4-.3-.8-.5-1.1-.2-.3-.5-.6-.9-.8-.4-.2-.8-.3-1.3-.3s-1 .1-1.3.3-.7.5-.9.8c-.2.3-.4.7-.5 1.1-.1.4-.2.8-.2 1.3s.1.9.2 1.3.3.8.5 1.1c.2.3.5.6.9.8.4.2.8.3 1.4.3.5 0 1-.1 1.3-.3.4-.2.6-.5.9-.8s.4-.7.5-1.2c.1-.4.1-.9.1-1.3s-.1-.8-.2-1.2zm11.9 6c-.3.2-.6.2-1.1.2-.4 0-.7-.1-.9-.3-.2-.2-.4-.6-.4-1.1-.4.5-.9.9-1.5 1.1-.6.2-1.2.3-1.8.3-.4 0-.8 0-1.2-.1-.4-.1-.7-.2-1-.5-.3-.2-.5-.5-.7-.8s-.2-.7-.2-1.2.1-1 .3-1.3c.2-.3.4-.6.7-.8s.6-.4 1-.5l1.2-.3c.4-.1.8-.1 1.2-.2.4 0 .7-.1 1-.2s.5-.2.7-.3.3-.4.3-.7c0-.3-.1-.6-.2-.8s-.3-.4-.5-.5c-.2-.1-.4-.2-.7-.2s-.5-.1-.7-.1c-.6 0-1.2.1-1.6.4-.4.2-.7.7-.7 1.4H632c0-.6.1-1.1.4-1.5.2-.4.5-.7.9-1 .4-.2.8-.4 1.2-.5.5-.1 1-.2 1.5-.2.4 0 .8 0 1.3.1.4.1.8.2 1.1.4s.6.4.8.8c.2.3.3.8.3 1.3v4.8c0 .4 0 .6.1.8s.2.3.4.3c.1 0 .3 0 .5-.1v1.3zm-2.5-4.8c-.2.1-.4.2-.8.3-.3.1-.6.1-1 .2s-.7.1-1 .1c-.3.1-.7.1-.9.3-.3.1-.5.3-.7.5-.2.2-.3.5-.3.9 0 .3.1.5.2.6.1.2.2.3.4.4.2.1.4.2.6.2s.4.1.7.1c.5 0 .9-.1 1.3-.2s.7-.3.9-.5c.2-.2.4-.4.5-.7.1-.2.2-.5.2-.7v-1.5zm5.3-4.5v2c.4-.8.8-1.3 1.4-1.7.5-.4 1.2-.5 2.1-.5V61c-.6 0-1.1.1-1.6.3-.4.2-.8.4-1 .7s-.5.7-.6 1.2c-.1.5-.2 1-.2 1.6v4.1h-1.5v-9.3h1.4zm9.8 1.6c-.4-.3-.9-.5-1.5-.5s-1 .1-1.4.3c-.4.2-.7.5-.9.8-.2.3-.4.7-.5 1.2-.1.4-.1.9-.1 1.4 0 .4.1.9.2 1.3s.3.8.5 1.1c.2.3.5.6.8.8.3.2.8.3 1.2.3.8 0 1.3-.2 1.8-.6.4-.4.7-1 .8-1.7h1.6c-.2 1.2-.6 2-1.3 2.7-.7.6-1.6.9-2.8.9-.7 0-1.3-.1-1.9-.3-.5-.2-1-.6-1.4-1s-.6-.9-.8-1.5c-.2-.6-.3-1.2-.3-1.9s.1-1.3.3-2c.2-.6.5-1.1.8-1.6.4-.5.8-.8 1.4-1.1.6-.3 1.2-.4 1.9-.4.5 0 1 .1 1.5.2s.9.3 1.2.6c.4.3.6.6.9 1 .2.4.4.9.4 1.4h-1.6c-.2-.6-.4-1.1-.8-1.4zm10.7 7.1c-.7.5-1.6.8-2.6.8-.7 0-1.4-.1-1.9-.4s-1-.6-1.4-1-.7-.9-.8-1.5c-.2-.6-.3-1.3-.3-2s.1-1.4.3-1.9c.2-.6.5-1.1.9-1.5.4-.4.9-.8 1.4-1s1.1-.4 1.8-.4c.8 0 1.5.2 2.1.5s1 .8 1.3 1.3c.3.5.6 1.1.7 1.7s.2 1.2.2 1.8h-7c0 .4 0 .8.1 1.2.1.4.3.7.5 1 .2.3.5.5.9.7s.8.3 1.3.3c.6 0 1.2-.2 1.6-.5s.7-.8.8-1.4h1.5c-.3 1-.7 1.8-1.4 2.3zm-.4-6c-.1-.3-.3-.6-.6-.8-.2-.2-.5-.4-.8-.6-.3-.1-.7-.2-1.1-.2-.4 0-.8.1-1.1.2-.3.1-.6.3-.8.6-.2.2-.4.5-.5.8-.1.3-.2.7-.2 1h5.3c.1-.3 0-.6-.2-1zm5.1-6.2V69h-1.5V56.1h1.5zm2.2 6.2c.2-.6.5-1.1.9-1.5.4-.4.9-.8 1.4-1 .6-.3 1.2-.4 1.9-.4s1.4.1 2 .4c.6.3 1 .6 1.4 1 .4.4.7 1 .9 1.5.2.6.3 1.2.3 1.9s-.1 1.3-.3 1.9c-.2.6-.5 1.1-.9 1.5-.4.4-.9.8-1.4 1-.6.2-1.2.4-2 .4-.7 0-1.4-.1-1.9-.4-.6-.2-1-.6-1.4-1-.4-.4-.7-1-.9-1.5-.2-.6-.3-1.2-.3-1.9 0-.6.1-1.3.3-1.9zm1.5 3.5c.1.4.4.8.6 1.1.3.3.6.5.9.7.4.2.7.2 1.1.2.4 0 .8-.1 1.1-.2.4-.2.7-.4.9-.7s.5-.7.6-1.1c.2-.4.2-.9.2-1.5s-.1-1.1-.2-1.5c-.2-.4-.4-.8-.6-1.1s-.6-.5-.9-.7c-.4-.2-.7-.2-1.1-.2-.4 0-.8.1-1.1.2-.4.2-.7.4-.9.7-.3.3-.5.7-.6 1.1-.2.4-.2.9-.2 1.5 0 .5.1 1 .2 1.5zm10.4-6.2v1.5c.6-1.1 1.6-1.7 3-1.7.6 0 1.1.1 1.5.3s.7.4 1 .7c.3.3.4.7.5 1.1.1.4.2.9.2 1.4V69h-1.5v-6.3c0-.6-.2-1-.5-1.4s-.8-.5-1.4-.5c-.5 0-.9.1-1.2.2-.3.1-.6.3-.9.6-.2.3-.4.6-.5.9-.1.4-.2.7-.2 1.2V69H681v-9.3h1.4zm16.9 9.3c-.3.2-.6.2-1.1.2-.4 0-.7-.1-.9-.3-.2-.2-.4-.6-.4-1.1-.4.5-.9.9-1.5 1.1-.6.2-1.2.3-1.8.3-.4 0-.8 0-1.2-.1-.4-.1-.7-.2-1-.5-.3-.2-.5-.5-.7-.8s-.2-.7-.2-1.2.1-1 .3-1.3c.2-.3.4-.6.7-.8s.6-.4 1-.5l1.2-.3c.4-.1.8-.1 1.2-.2.4 0 .7-.1 1-.2s.5-.2.7-.3.3-.4.3-.7c0-.3-.1-.6-.2-.8s-.3-.4-.5-.5c-.2-.1-.4-.2-.7-.2s-.5-.1-.7-.1c-.6 0-1.2.1-1.6.4-.4.2-.7.7-.7 1.4H691c0-.6.1-1.1.4-1.5.2-.4.5-.7.9-1 .4-.2.8-.4 1.2-.5.5-.1 1-.2 1.5-.2.4 0 .8 0 1.3.1.4.1.8.2 1.1.4s.6.4.8.8c.2.3.3.8.3 1.3v4.8c0 .4 0 .6.1.8s.2.3.4.3c.1 0 .3 0 .5-.1v1.3zm-2.5-4.8c-.2.1-.4.2-.8.3-.3.1-.6.1-1 .2s-.7.1-1 .1c-.3.1-.7.1-.9.3-.3.1-.5.3-.7.5-.2.2-.3.5-.3.9 0 .3.1.5.2.6.1.2.2.3.4.4.2.1.4.2.6.2s.4.1.7.1c.5 0 .9-.1 1.3-.2s.7-.3.9-.5c.2-.2.4-.4.5-.7.1-.2.2-.5.2-.7v-1.5zm14.4-2.9c-.4-.3-.9-.5-1.5-.5s-1 .1-1.4.3c-.4.2-.7.5-.9.8-.2.3-.4.7-.5 1.2-.1.4-.1.9-.1 1.4 0 .4.1.9.2 1.3s.3.8.5 1.1c.2.3.5.6.8.8.3.2.8.3 1.2.3.8 0 1.3-.2 1.8-.6.4-.4.7-1 .8-1.7h1.6c-.2 1.2-.6 2-1.3 2.7-.7.6-1.6.9-2.8.9-.7 0-1.3-.1-1.9-.3-.5-.2-1-.6-1.4-1s-.6-.9-.8-1.5c-.2-.6-.3-1.2-.3-1.9s.1-1.3.3-2c.2-.6.5-1.1.8-1.6.4-.5.8-.8 1.4-1.1.6-.3 1.2-.4 1.9-.4.5 0 1 .1 1.5.2s.9.3 1.2.6c.4.3.6.6.9 1 .2.4.4.9.4 1.4H712c-.1-.6-.4-1.1-.8-1.4zm5.7-5.1V61c.1-.3.3-.5.5-.7.2-.2.5-.4.7-.5.3-.1.6-.2.8-.3.3-.1.6-.1.9-.1.6 0 1.1.1 1.5.3s.7.4 1 .7c.3.3.4.7.5 1.1.1.4.2.9.2 1.4V69h-1.5v-6.3c0-.6-.2-1-.5-1.4s-.8-.5-1.4-.5c-.5 0-.9.1-1.2.2-.3.1-.6.3-.9.6-.2.3-.4.6-.5.9-.1.4-.2.7-.2 1.2V69h-1.5V56.1h1.6zm16.7 12.8c-.3.2-.6.2-1.1.2-.4 0-.7-.1-.9-.3-.2-.2-.4-.6-.4-1.1-.4.5-.9.9-1.5 1.1-.6.2-1.2.3-1.8.3-.4 0-.8 0-1.2-.1-.4-.1-.7-.2-1-.5-.3-.2-.5-.5-.7-.8s-.2-.7-.2-1.2.1-1 .3-1.3c.2-.3.4-.6.7-.8s.6-.4 1-.5l1.2-.3c.4-.1.8-.1 1.2-.2.4 0 .7-.1 1-.2s.5-.2.7-.3.3-.4.3-.7c0-.3-.1-.6-.2-.8s-.3-.4-.5-.5c-.2-.1-.4-.2-.7-.2s-.5-.1-.7-.1c-.6 0-1.2.1-1.6.4-.4.2-.7.7-.7 1.4h-1.5c0-.6.1-1.1.4-1.5.2-.4.5-.7.9-1 .4-.2.8-.4 1.2-.5.5-.1 1-.2 1.5-.2.4 0 .8 0 1.3.1.4.1.8.2 1.1.4s.6.4.8.8c.2.3.3.8.3 1.3v4.8c0 .4 0 .6.1.8s.2.3.4.3c.1 0 .3 0 .5-.1v1.3zm-2.5-4.8c-.2.1-.4.2-.8.3-.3.1-.6.1-1 .2s-.7.1-1 .1c-.3.1-.7.1-.9.3-.3.1-.5.3-.7.5-.2.2-.3.5-.3.9 0 .3.1.5.2.6.1.2.2.3.4.4.2.1.4.2.6.2s.4.1.7.1c.5 0 .9-.1 1.3-.2s.7-.3.9-.5c.2-.2.4-.4.5-.7.1-.2.2-.5.2-.7v-1.5zm5.5-4.5v1.3c.3-.5.6-.9 1.2-1.1s1.1-.4 1.8-.4 1.3.1 1.9.4 1 .6 1.3 1.1c.4.4.6 1 .8 1.6s.3 1.2.3 1.9-.1 1.3-.3 1.9-.4 1.1-.8 1.5c-.4.4-.8.8-1.3 1s-1.2.4-1.9.4c-.2 0-.5 0-.8-.1s-.6-.1-.8-.2c-.3-.1-.5-.3-.8-.4-.2-.2-.5-.4-.6-.7v4.8h-1.5v-13h1.5zm5.5 3.3c-.1-.4-.3-.8-.5-1.1-.2-.3-.5-.6-.9-.8-.4-.2-.8-.3-1.3-.3s-1 .1-1.3.3-.7.5-.9.8c-.2.3-.4.7-.5 1.1-.1.4-.2.8-.2 1.3s.1.9.2 1.3.3.8.5 1.1c.2.3.5.6.9.8.4.2.8.3 1.4.3.5 0 1-.1 1.3-.3.4-.2.6-.5.9-.8s.4-.7.5-1.2c.1-.4.1-.9.1-1.3s-.1-.8-.2-1.2zm7.6-3.3v1.3h-1.9v6.2c0 .1.1.2.2.3.1.1.2.1.4.1h1.3v1.3h-1.2c-.4 0-.7 0-1-.1-.3-.1-.5-.2-.7-.3-.2-.1-.3-.3-.4-.6-.1-.3-.1-.6-.1-1v-5.9h-1.6v-1.3h1.6v-2.8h1.5v2.8h1.9zm8.3 8.7c-.7.5-1.6.8-2.6.8-.7 0-1.4-.1-1.9-.4s-1-.6-1.4-1-.7-.9-.8-1.5c-.2-.6-.3-1.3-.3-2s.1-1.4.3-1.9c.2-.6.5-1.1.9-1.5.4-.4.9-.8 1.4-1s1.1-.4 1.8-.4c.8 0 1.5.2 2.1.5s1 .8 1.3 1.3c.3.5.6 1.1.7 1.7s.2 1.2.2 1.8h-7c0 .4 0 .8.1 1.2.1.4.3.7.5 1 .2.3.5.5.9.7s.8.3 1.3.3c.6 0 1.2-.2 1.6-.5s.7-.8.8-1.4h1.5c-.3 1-.7 1.8-1.4 2.3zm-.4-6c-.1-.3-.3-.6-.6-.8-.2-.2-.5-.4-.8-.6-.3-.1-.7-.2-1.1-.2-.4 0-.8.1-1.1.2-.3.1-.6.3-.8.6-.2.2-.4.5-.5.8-.1.3-.2.7-.2 1h5.3c0-.3-.1-.6-.2-1zm4.8-2.7v2c.4-.8.8-1.3 1.4-1.7.5-.4 1.2-.5 2.1-.5V61c-.6 0-1.1.1-1.6.3-.4.2-.8.4-1 .7s-.5.7-.6 1.2c-.1.5-.2 1-.2 1.6v4.1H761v-9.3h1.4zm11.1-4.8v18h-1.2v-18h1.2z"/><path d="M782.4 59.6v2c.4-.8.8-1.3 1.4-1.7.5-.4 1.2-.5 2.1-.5V61c-.6 0-1.1.1-1.6.3-.4.2-.8.4-1 .7s-.5.7-.6 1.2c-.1.5-.2 1-.2 1.6v4.1H781v-9.3h1.4zm10.9 8.7c-.7.5-1.6.8-2.6.8-.7 0-1.4-.1-1.9-.4s-1-.6-1.4-1-.7-.9-.8-1.5c-.2-.6-.3-1.3-.3-2s.1-1.4.3-1.9c.2-.6.5-1.1.9-1.5.4-.4.9-.8 1.4-1s1.1-.4 1.8-.4c.8 0 1.5.2 2.1.5s1 .8 1.3 1.3c.3.5.6 1.1.7 1.7s.2 1.2.2 1.8h-7c0 .4 0 .8.1 1.2.1.4.3.7.5 1 .2.3.5.5.9.7s.8.3 1.3.3c.6 0 1.2-.2 1.6-.5s.7-.8.8-1.4h1.5c-.3 1-.7 1.8-1.4 2.3zm-.4-6c-.1-.3-.3-.6-.6-.8-.2-.2-.5-.4-.8-.6-.3-.1-.7-.2-1.1-.2-.4 0-.8.1-1.1.2-.3.1-.6.3-.8.6-.2.2-.4.5-.5.8-.1.3-.2.7-.2 1h5.3c0-.3 0-.6-.2-1zm5.1-6.2v4.8c.3-.5.6-.9 1.2-1.1s1.1-.4 1.8-.4 1.3.1 1.9.4 1 .6 1.3 1.1c.4.4.6 1 .8 1.6s.3 1.2.3 1.9-.1 1.3-.3 1.9-.4 1.1-.8 1.5c-.4.4-.8.8-1.3 1s-1.2.4-1.9.4c-.2 0-.5 0-.8-.1s-.6-.1-.8-.2c-.3-.1-.5-.3-.8-.4-.2-.2-.5-.4-.6-.7V69h-1.5V56.1h1.5zm5.5 6.8c-.1-.4-.3-.8-.5-1.1-.2-.3-.5-.6-.9-.8-.4-.2-.8-.3-1.3-.3s-1 .1-1.3.3-.7.5-.9.8c-.2.3-.4.7-.5 1.1-.1.4-.2.8-.2 1.3s.1.9.2 1.3.3.8.5 1.1c.2.3.5.6.9.8.4.2.8.3 1.4.3.5 0 1-.1 1.3-.3.4-.2.6-.5.9-.8s.4-.7.5-1.2c.1-.4.1-.9.1-1.3-.1-.4-.1-.8-.2-1.2zm3.3-.6c.2-.6.5-1.1.9-1.5.4-.4.9-.8 1.4-1 .6-.3 1.2-.4 1.9-.4s1.4.1 2 .4c.6.3 1 .6 1.4 1 .4.4.7 1 .9 1.5.2.6.3 1.2.3 1.9s-.1 1.3-.3 1.9c-.2.6-.5 1.1-.9 1.5-.4.4-.9.8-1.4 1-.6.2-1.2.4-2 .4-.7 0-1.4-.1-1.9-.4-.6-.2-1-.6-1.4-1-.4-.4-.7-1-.9-1.5-.2-.6-.3-1.2-.3-1.9 0-.6.1-1.3.3-1.9zm1.6 3.5c.1.4.4.8.6 1.1.3.3.6.5.9.7.4.2.7.2 1.1.2.4 0 .8-.1 1.1-.2.4-.2.7-.4.9-.7s.5-.7.6-1.1c.2-.4.2-.9.2-1.5s-.1-1.1-.2-1.5c-.2-.4-.4-.8-.6-1.1s-.6-.5-.9-.7c-.4-.2-.7-.2-1.1-.2-.4 0-.8.1-1.1.2-.4.2-.7.4-.9.7-.3.3-.5.7-.6 1.1-.2.4-.2.9-.2 1.5 0 .5 0 1 .2 1.5zm8.8-3.5c.2-.6.5-1.1.9-1.5.4-.4.9-.8 1.4-1 .6-.3 1.2-.4 1.9-.4s1.4.1 2 .4c.6.3 1 .6 1.4 1 .4.4.7 1 .9 1.5.2.6.3 1.2.3 1.9s-.1 1.3-.3 1.9c-.2.6-.5 1.1-.9 1.5-.4.4-.9.8-1.4 1-.6.2-1.2.4-2 .4-.7 0-1.4-.1-1.9-.4-.6-.2-1-.6-1.4-1-.4-.4-.7-1-.9-1.5-.2-.6-.3-1.2-.3-1.9 0-.6.1-1.3.3-1.9zm1.5 3.5c.1.4.4.8.6 1.1.3.3.6.5.9.7.4.2.7.2 1.1.2.4 0 .8-.1 1.1-.2.4-.2.7-.4.9-.7s.5-.7.6-1.1c.2-.4.2-.9.2-1.5s-.1-1.1-.2-1.5c-.2-.4-.4-.8-.6-1.1s-.6-.5-.9-.7c-.4-.2-.7-.2-1.1-.2-.4 0-.8.1-1.1.2-.4.2-.7.4-.9.7-.3.3-.5.7-.6 1.1-.2.4-.2.9-.2 1.5 0 .5.1 1 .2 1.5zm13-6.2v1.3h-1.9v6.2c0 .1.1.2.2.3.1.1.2.1.4.1h1.3v1.3h-1.2c-.4 0-.7 0-1-.1-.3-.1-.5-.2-.7-.3-.2-.1-.3-.3-.4-.6-.1-.3-.1-.6-.1-1v-5.9h-1.6v-1.3h1.6v-2.8h1.5v2.8h1.9zm1.8-1.7V56h1.5v1.9h-1.5zm1.5 1.7v9.3h-1.5v-9.3h1.5zm3.8 0v1.5c.6-1.1 1.6-1.7 3-1.7.6 0 1.1.1 1.5.3s.7.4 1 .7c.3.3.4.7.5 1.1.1.4.2.9.2 1.4V69h-1.5v-6.3c0-.6-.2-1-.5-1.4s-.8-.5-1.4-.5c-.5 0-.9.1-1.2.2-.3.1-.6.3-.9.6-.2.3-.4.6-.5.9-.1.4-.2.7-.2 1.2V69h-1.5v-9.3h1.5zm15.6 11.9c-.7.8-1.8 1.1-3.3 1.1-.4 0-.9 0-1.3-.1-.5-.1-.9-.3-1.2-.5-.4-.2-.7-.5-.9-.8-.2-.3-.4-.8-.4-1.3h1.5c0 .3.1.5.3.7.2.2.4.3.6.5.2.1.5.2.8.3.3.1.5.1.8.1.5 0 .9-.1 1.3-.3.3-.2.6-.4.9-.7.2-.3.4-.7.5-1.1.1-.4.2-.9.2-1.4v-.6c-.3.6-.7 1-1.2 1.3-.5.3-1.1.4-1.7.4-.7 0-1.3-.1-1.8-.4-.5-.3-.9-.6-1.3-1-.3-.4-.6-.9-.8-1.5s-.3-1.2-.3-1.8c0-.6.1-1.1.2-1.7.1-.6.4-1.1.7-1.6.3-.5.8-.9 1.3-1.2.6-.3 1.2-.5 2-.5.6 0 1.1.1 1.6.4.5.3.9.6 1.2 1.2v-1.3h1.4v8.5c-.1 1.4-.4 2.6-1.1 3.3zm-2-4.2c.4-.2.6-.5.9-.8s.4-.7.5-1.2c.1-.4.2-.9.2-1.3s0-.8-.1-1.2c-.1-.4-.2-.8-.5-1.1-.2-.3-.5-.6-.8-.8-.3-.2-.7-.3-1.2-.3s-.9.1-1.3.3c-.3.2-.6.4-.9.7-.2.3-.4.7-.5 1.1-.1.4-.2.8-.2 1.3 0 .4 0 .8.1 1.3.1.4.2.8.4 1.1s.5.6.8.8.8.3 1.3.3c.5.2 1 .1 1.3-.2zm11.3 4.6c-.4.4-.9.6-1.6.6-.3 0-.5 0-.8-.1v-1.3h.6c.3 0 .6-.1.7-.3.1-.2.2-.5.2-1V59.6h1.5v10.5c0 .8-.2 1.4-.6 1.8zm-.9-14V56h1.5v1.9h-1.5zm3.7 4.4c.2-.6.5-1.1.9-1.5.4-.4.9-.8 1.4-1 .6-.3 1.2-.4 1.9-.4s1.4.1 2 .4c.6.3 1 .6 1.4 1 .4.4.7 1 .9 1.5.2.6.3 1.2.3 1.9s-.1 1.3-.3 1.9c-.2.6-.5 1.1-.9 1.5-.4.4-.9.8-1.4 1-.6.2-1.2.4-2 .4-.7 0-1.4-.1-1.9-.4-.6-.2-1-.6-1.4-1-.4-.4-.7-1-.9-1.5-.2-.6-.3-1.2-.3-1.9 0-.6.1-1.3.3-1.9zm1.6 3.5c.1.4.4.8.6 1.1.3.3.6.5.9.7.4.2.7.2 1.1.2.4 0 .8-.1 1.1-.2.4-.2.7-.4.9-.7s.5-.7.6-1.1c.2-.4.2-.9.2-1.5s-.1-1.1-.2-1.5c-.2-.4-.4-.8-.6-1.1s-.6-.5-.9-.7c-.4-.2-.7-.2-1.1-.2-.4 0-.8.1-1.1.2-.4.2-.7.4-.9.7-.3.3-.5.7-.6 1.1-.2.4-.2.9-.2 1.5-.1.5 0 1 .2 1.5zm15.2 3.1v-1.5c-.3.6-.7 1-1.2 1.3-.5.3-1.1.4-1.8.4-.6 0-1.1-.1-1.5-.2-.4-.2-.7-.4-1-.7-.3-.3-.4-.7-.5-1.1-.1-.4-.2-.9-.2-1.4v-6.1h1.5v6.3c0 .6.2 1 .5 1.4s.8.5 1.4.5c.5 0 .9-.1 1.2-.2.3-.1.6-.3.9-.6.2-.3.4-.6.5-.9.1-.4.2-.7.2-1.2v-5.3h1.5v9.3h-1.5zm5.1-9.3v2c.4-.8.8-1.3 1.4-1.7.5-.4 1.2-.5 2.1-.5V61c-.6 0-1.1.1-1.6.3-.4.2-.8.4-1 .7s-.5.7-.6 1.2c-.1.5-.2 1-.2 1.6v4.1H887v-9.3h1.4zm6.4 0v1.5c.6-1.1 1.6-1.7 3-1.7.6 0 1.1.1 1.5.3s.7.4 1 .7c.3.3.4.7.5 1.1.1.4.2.9.2 1.4V69h-1.5v-6.3c0-.6-.2-1-.5-1.4s-.8-.5-1.4-.5c-.5 0-.9.1-1.2.2-.3.1-.6.3-.9.6-.2.3-.4.6-.5.9-.1.4-.2.7-.2 1.2V69h-1.5v-9.3h1.5zm16.8 9.3c-.3.2-.6.2-1.1.2-.4 0-.7-.1-.9-.3-.2-.2-.4-.6-.4-1.1-.4.5-.9.9-1.5 1.1-.6.2-1.2.3-1.8.3-.4 0-.8 0-1.2-.1-.4-.1-.7-.2-1-.5-.3-.2-.5-.5-.7-.8s-.2-.7-.2-1.2.1-1 .3-1.3c.2-.3.4-.6.7-.8s.6-.4 1-.5l1.2-.3c.4-.1.8-.1 1.2-.2.4 0 .7-.1 1-.2s.5-.2.7-.3.3-.4.3-.7c0-.3-.1-.6-.2-.8s-.3-.4-.5-.5c-.2-.1-.4-.2-.7-.2s-.5-.1-.7-.1c-.6 0-1.2.1-1.6.4-.4.2-.7.7-.7 1.4h-1.5c0-.6.1-1.1.4-1.5.2-.4.5-.7.9-1 .4-.2.8-.4 1.2-.5.5-.1 1-.2 1.5-.2.4 0 .8 0 1.3.1.4.1.8.2 1.1.4s.6.4.8.8c.2.3.3.8.3 1.3v4.8c0 .4 0 .6.1.8s.2.3.4.3c.1 0 .3 0 .5-.1v1.3zm-2.5-4.8c-.2.1-.4.2-.8.3-.3.1-.6.1-1 .2s-.7.1-1 .1c-.3.1-.7.1-.9.3-.3.1-.5.3-.7.5-.2.2-.3.5-.3.9 0 .3.1.5.2.6.1.2.2.3.4.4.2.1.4.2.6.2s.4.1.7.1c.5 0 .9-.1 1.3-.2s.7-.3.9-.5c.2-.2.4-.4.5-.7.1-.2.2-.5.2-.7v-1.5zm5.6-8V69h-1.5V56.1h1.5zm2.4 1.8V56h1.5v1.9h-1.5zm1.6 1.7v9.3h-1.5v-9.3h1.5zm3.5 7.2c.1.2.3.4.6.6.2.1.5.2.8.3.3.1.6.1.9.1.2 0 .5 0 .8-.1.3 0 .5-.1.7-.2.2-.1.4-.2.5-.4.1-.2.2-.4.2-.7 0-.4-.2-.7-.5-.9s-.7-.4-1.1-.5c-.4-.1-.9-.2-1.5-.3s-1-.2-1.5-.4-.8-.4-1.1-.8-.5-.8-.5-1.4c0-.5.1-.9.3-1.2s.5-.6.8-.8c.3-.2.7-.4 1.1-.5.4-.1.8-.2 1.2-.2.5 0 1 0 1.5.1.4.1.8.2 1.2.5s.6.5.8.9c.2.4.3.8.4 1.4h-1.5c0-.3-.1-.5-.2-.7-.1-.2-.3-.4-.5-.5-.2-.1-.4-.2-.7-.3s-.5-.1-.7-.1c-.2 0-.5 0-.7.1s-.4.1-.6.2c-.2.1-.3.2-.5.4-.1.2-.2.3-.2.6s.1.5.3.7c.2.2.4.3.7.4.3.1.6.2 1 .3.4.1.7.2 1.1.2.4.1.8.2 1.1.3s.7.3 1 .5.5.4.7.7.3.7.3 1.1c0 .6-.1 1-.4 1.4-.2.4-.5.7-.9.9-.4.2-.8.4-1.3.5-.5.1-.9.1-1.4.1-.5 0-1-.1-1.5-.2s-.9-.3-1.2-.5c-.4-.2-.6-.6-.9-1s-.3-.9-.4-1.5h1.5c.1.4.2.7.3.9zm9.3-7.2V61c.7-1.1 1.7-1.6 3-1.6.6 0 1.1.1 1.6.4s.8.6 1 1.2c.3-.5.7-.9 1.2-1.2.5-.3 1.1-.4 1.7-.4.5 0 .9.1 1.3.2s.7.3 1 .5c.3.2.5.5.6.8.2.3.2.8.2 1.2v6.8h-1.5v-6.1c0-.3 0-.6-.1-.8s-.1-.5-.3-.7c-.1-.2-.3-.3-.5-.4-.2-.1-.5-.2-.9-.2-.8 0-1.3.2-1.8.6-.4.4-.6 1-.6 1.7v5.8h-1.5v-6.1c0-.3 0-.6-.1-.8s-.1-.5-.3-.7c-.1-.2-.3-.3-.5-.4-.2-.1-.5-.2-.9-.2s-.8.1-1.1.3c-.3.2-.6.4-.8.6s-.3.5-.4.8c-.1.3-.1.5-.1.7v5.8H930v-9.3h1.5z"/></svg>