<svg xmlns="http://www.w3.org/2000/svg" viewBox="0 0 198.8 63.1" enable-background="new 0 0 198.8 63.1"><path fill="#f60" d="M0 .2v3.3l2.1 2.1 6 57.5h11.6l5.8-57 2.4-3.2V.2h-9.8l-4.2 43.6L9.8.2zM29.3 7.8h9v8.4h-9zM27.1 21.4h11.3v36.2l1.2 2.5v3H27.1l2.2-4.9V26.3zM40.4.2l2.7 6v50.4l-1.3 6.5h12.4l-2.9-6.8L51.2.2zM56.4 21.4v12.1l6.7-5.1 5.5-.2v9.4H58.5l-2.1 2.1v21.2l1.8 2.2h21v-2.8l-2.5-3.5.3-33.5-2.4-1.9z"/><path fill="#fff" d="M64 44.3h5.4v12.5H64z"/><path fill="#f60" d="M79.2.2l2.9 6v53.4l2.4 3.5h29.3l2.2-3.3V6.5l2.5-6.3h-10.9v56.6h-4.3V.2h-8.4v56.6h-4.1V.2zM122.2 21.4h17.4l2.3 2.3v20.9h-13.1v11.7h5l6.5-6.6v13.4h-17l-2.4-2.4V21.4z"/><path fill="#fff" d="M128.8 28.4h4.9v9.5h-4.9z"/><path fill="#f60" d="M143.7.2v2.2l2.6 4.1v49.8l-2.6 4.4v2.4h21l2.3-2.7V24.3l-2.3-2.9h-10.3V.2z"/><path fill="#fff" d="M154.5 28.4h4.9v27.4h-4.9z"/><path fill="#f60" d="M170.2 1.6v18.9l1 .9h25.9l1.7-1.6V1.6L197.2 0h-25.6z"/><path fill="#fff" d="M187 2.4v15.5h-.9V2.4h-2.7v15.5h-1.3V2.4h-4l.8 1.3v15.9h9.3l1.7-1.7V2.4z"/></svg>